<svg xmlns="http://www.w3.org/2000/svg" version="1.1" width="3300" height="2000"><g id="Notes"><style>
    text {
      font-family: monospace;
      text-anchor: middle;
    }
    text.emphasis {
      font-weight:bold;
    }
    text.lanchor {
      text-anchor: start;
    }
  </style><rect height="2200" id="artboard" fill="white" width="3300" x="0" y="0"/><line id="" style="fill:none;stroke:black;stroke-width:0.5;" x1="263" x2="3036" y1="292" y2="292"/><text class="lanchor emphasis" transform="matrix(1 0 0 1 263 322)">Weight/Scale Variations</text><text transform="matrix(1 0 0 1 559.711 322)">Ultralight</text><text transform="matrix(1 0 0 1 856.422 322)">Thin</text><text transform="matrix(1 0 0 1 1153.13 322)">Light</text><text transform="matrix(1 0 0 1 1449.84 322)">Regular</text><text transform="matrix(1 0 0 1 1746.56 322)">Medium</text><text transform="matrix(1 0 0 1 2043.27 322)">Semibold</text><text transform="matrix(1 0 0 1 2339.98 322)">Bold</text><text transform="matrix(1 0 0 1 2636.69 322)">Heavy</text><text transform="matrix(1 0 0 1 2933.4 322)">Black</text><text id="template-version" style="text-anchor: end;" transform="matrix(1 0 0 1 3036 1933)">Template v.1.0</text><text class="lanchor" transform="matrix(1 0 0 1 263 726)">Small</text><text class="lanchor" transform="matrix(1 0 0 1 263 1156)">Medium</text><text class="lanchor" transform="matrix(1 0 0 1 263 1586)">Large</text></g><g id="Guides"><g id="H-reference" style="fill:#27AAE1;stroke:none;" transform="matrix(1 0 0 1 339 696)"><path d="M 54.9316 0 L 57.666 0 L 30.5664 -70.459 L 28.0762 -70.459 L 0.976562 0 L 3.66211 0 L 12.9395 -24.4629 L 45.7031 -24.4629 Z M 29.1992 -67.0898 L 29.4434 -67.0898 L 44.8242 -26.709 L 13.8184 -26.709 Z"/></g><line id="Baseline-S" style="fill:none;stroke:#27AAE1;opacity:1;stroke-width:0.577;" x1="263" x2="3036" y1="696" y2="696"/><line id="Capline-S" style="fill:none;stroke:#27AAE1;opacity:1;stroke-width:0.577;" x1="263" x2="3036" y1="625.541" y2="625.541"/><g id="H-reference" style="fill:#27AAE1;stroke:none;" transform="matrix(1 0 0 1 339 1126)"><path d="M 54.9316 0 L 57.666 0 L 30.5664 -70.459 L 28.0762 -70.459 L 0.976562 0 L 3.66211 0 L 12.9395 -24.4629 L 45.7031 -24.4629 Z M 29.1992 -67.0898 L 29.4434 -67.0898 L 44.8242 -26.709 L 13.8184 -26.709 Z"/></g><line id="Baseline-M" style="fill:none;stroke:#27AAE1;opacity:1;stroke-width:0.577;" x1="263" x2="3036" y1="1126" y2="1126"/><line id="Capline-M" style="fill:none;stroke:#27AAE1;opacity:1;stroke-width:0.577;" x1="263" x2="3036" y1="1055.54" y2="1055.54"/><g id="H-reference" style="fill:#27AAE1;stroke:none;" transform="matrix(1 0 0 1 339 1556)"><path d="M 54.9316 0 L 57.666 0 L 30.5664 -70.459 L 28.0762 -70.459 L 0.976562 0 L 3.66211 0 L 12.9395 -24.4629 L 45.7031 -24.4629 Z M 29.1992 -67.0898 L 29.4434 -67.0898 L 44.8242 -26.709 L 13.8184 -26.709 Z"/></g><line id="Baseline-L" style="fill:none;stroke:#27AAE1;opacity:1;stroke-width:0.577;" x1="263" x2="3036" y1="1556" y2="1556"/><line id="Capline-L" style="fill:none;stroke:#27AAE1;opacity:1;stroke-width:0.577;" x1="263" x2="3036" y1="1485.54" y2="1485.54"/><rect height="119.336" id="left-margin" style="fill:darkred;stroke:none;opacity:0.4;" width="12.4512" x="1394.06" y="1030.79"/><rect height="119.336" id="right-margin" style="fill:darkgreen;stroke:none;opacity:0.4;" width="12.4512" x="1502.5112" y="1030.79"/><rect x="1406.5112" y="1045" width="96" height="96" fill="none" stroke="blue" stroke-dasharray="5"/><rect x="1394.06" y="1030.79" width="120.9024" height="119.336" fill="none" stroke="blue"/></g><g id="Symbols"><g id="Bold-L" transform="matrix(1 0 0 1 2266 1556)"><path d="M45.31125 31.688750000000013  8.86875 -4.914999999999985  45.472500000000004 -41.51874999999998  56.276250000000005 -30.876249999999985  37.893750000000004 -12.493749999999984 H139.6425 V2.825000000000017 H37.893750000000004 L56.115 21.046250000000015 L45.31125 31.688750000000013 Z M109.48875 -28.941249999999982  98.84625 -39.58374999999998  117.06750000000001 -57.80499999999999 H15.31875 V-73.12374999999999 H117.06750000000001 L98.685 -91.66749999999999 L109.3275 -102.31 L146.0925 -65.54499999999999 L109.48875 -28.941249999999982 Z"/></g><g id="Semibold-L" transform="matrix(1 0 0 1 1970.27 1556)"><path d="M44.610135 27.833101250000013  10.62137625 -6.246924999999983  44.771385 -40.39709499999998  53.82267 -31.437077499999987  35.01946875 -12.634037499999984 H137.81973000000002 V0.23113250000001528 H35.01946875 L53.66142 18.873083750000013 L44.610135 27.833101250000013 Z M110.189865 -30.062904999999986  101.2298475 -39.02292249999998  119.8716375 -57.66471249999999 H17.07137625 V-70.52988249999999 H119.8716375 L101.06859750000001 -89.42418999999998 L110.028615 -98.38420749999997 L144.26973 -64.14293124999998 L110.189865 -30.062904999999986 Z"/></g><g id="Medium-L" transform="matrix(1 0 0 1 1674.31 1556)"><path d="M44.08429875 24.940760000000015  11.9360475 -7.24602999999999  44.245548750000005 -39.55569249999999  51.9821625 -31.85777874999998  32.86355625 -12.739172499999981 H136.4526525 V-1.7145099999999829 H32.86355625 L51.820912500000006 17.242846250000017 L44.08429875 24.940760000000015 Z M110.71570125000001 -30.904307499999987  103.01762625 -38.602221249999985  121.97514375 -57.559577499999975 H18.3860475 V-68.58423999999998 H121.97514375 L102.85637625000001 -87.74138500000001 L110.55445125000001 -95.43946 L142.9026525 -63.091258749999994 L110.71570125000001 -30.904307499999987 Z"/></g><g id="Regular-L" transform="matrix(1 0 0 1 1378.56 1556)"><path d="M43.698750000000004 22.820000000000014  12.9 -7.978749999999984  43.86 -38.938749999999985  50.6325 -32.16624999999999  31.282500000000002 -12.816249999999982 H135.45000000000002 V-3.141249999999985 H31.282500000000002 L50.471250000000005 16.047500000000014 L43.698750000000004 22.820000000000014 Z M111.10125000000001 -31.52124999999998  104.32875 -38.29374999999999  123.5175 -57.48249999999999 H19.35 V-67.15749999999998 H123.5175 L104.1675 -86.5075 L110.94 -93.28 L141.9 -62.31999999999999 L111.10125000000001 -31.52124999999998 Z"/></g><g id="Light-L" transform="matrix(1 0 0 1 1082.77 1556)"><path d="M45.0632475 20.587171250000015  16.12516125 -8.350914999999986  45.2244975 -37.450251249999994  50.32241625 -32.29025124999998  30.04200375 -12.009999999999984 H132.22483875 V-4.691829999999982 H30.04200375 L50.22308625 15.427332500000016 L45.0632475 20.587171250000015 Z M109.73675250000001 -33.009748749999986  104.57691375 -38.16974874999998  124.75799625 -58.28874999999999 H22.57516125 V-65.60691999999999 H124.75799625 L104.47758375000001 -85.88733249999999 L109.5755025 -91.04717124999999 L138.67483875000002 -61.94783499999998 L109.73675250000001 -33.009748749999986 Z"/></g><g id="Thin-L" transform="matrix(1 0 0 1 787.282 1556)"><path d="M46.427583750000004 18.354665000000015  19.35 -8.722918749999984  46.58883375 -35.96191374999998  50.0123325 -32.41425249999999  28.80166875 -11.203749999999985 H129.0 V-6.2422487499999875 H28.80166875 L49.97508375 14.807165000000015 L46.427583750000004 18.354665000000015 Z M108.37241625 -34.498086249999986  104.82491625 -38.04574749999999  125.99833125 -59.094999999999985 H25.8 V-64.05650124999998 H125.99833125 L104.7876675 -85.26716499999999 L108.21116625 -88.81466499999999 L135.45000000000002 -61.57583124999998 L108.37241625 -34.498086249999986 Z"/></g><g id="Ultralight-L" transform="matrix(1 0 0 1 491.205 1556)"><path d="M47.24625 17.015000000000015  21.285 -8.946249999999985  47.4075 -35.06874999999998  49.82625 -32.48874999999998  28.0575 -10.719999999999985 H127.065 V-7.172499999999985 H28.0575 L49.82625 14.435000000000016 L47.24625 17.015000000000015 Z M107.55375000000001 -35.391249999999985  104.97375000000001 -37.97124999999998  126.7425 -59.578749999999985 H27.735 V-63.126249999999985 H126.7425 L104.97375000000001 -84.89499999999998 L107.3925 -87.475 L133.51500000000001 -61.35249999999999 L107.55375000000001 -35.391249999999985 Z"/></g><g id="Bold-M" transform="matrix(1 0 0 1 2281.8 1126)"><path d="M36.625 19.02000000000001  5.75 -11.97999999999999  36.625 -42.85499999999999  47.875 -31.85499999999999  35.875 -19.85499999999999 H109.25 V-4.10499999999999 H35.875 L47.875 8.02000000000001 L36.625 19.02000000000001 Z M83.375 -27.60499999999999  72.125 -38.60499999999999  84.125 -50.60499999999999 H10.75 V-66.35499999999999 H84.125 L72.125 -78.47999999999999 L83.375 -89.47999999999999 L114.25 -58.47999999999999 L83.375 -27.60499999999999 Z"/></g><g id="Semibold-M" transform="matrix(1 0 0 1 1985.97 1126)"><path d="M35.9185 14.99850000000001  7.59775 -13.392999999999986  35.9185 -41.71374999999999  45.375125 -32.45274999999999  32.940375 -20.017999999999986 H107.40225 V-6.767874999999989 H32.940375 L45.375125 5.737500000000011 L35.9185 14.99850000000001 Z M84.0815 -28.74624999999999  74.624875 -38.00724999999999  87.059625 -50.44199999999999 H12.59775 V-63.69212499999999 H87.059625 L74.624875 -76.19749999999999 L84.0815 -85.45849999999999 L112.40225 -57.06699999999999 L84.0815 -28.74624999999999 Z"/></g><g id="Medium-M" transform="matrix(1 0 0 1 1689.91 1126)"><path d="M35.388625 11.98200000000001  8.983625 -14.452749999999988  35.388625 -40.857749999999996  43.5 -32.90124999999999  30.739125 -20.14037499999999 H106.016375 V-8.765249999999988 H30.739125 L43.5 4.025500000000012 L35.388625 11.98200000000001 Z M84.611375 -29.60224999999999  76.5 -37.55874999999999  89.260875 -50.31962499999999 H13.983625 V-61.694749999999985 H89.260875 L76.5 -74.48549999999999 L84.611375 -82.442 L111.016375 -56.007249999999985 L84.611375 -29.60224999999999 Z"/></g><g id="Regular-M" transform="matrix(1 0 0 1 1394.06 1126)"><path d="M35.0 9.77000000000001  10.0 -15.22999999999999  35.0 -40.22999999999999  42.125 -33.22999999999999  29.125 -20.22999999999999 H105.0 V-10.22999999999999 H29.125 L42.125 2.7700000000000102 L35.0 9.77000000000001 Z M85.0 -30.22999999999999  77.875 -37.22999999999999  90.875 -50.22999999999999 H15.0 V-60.22999999999999 H90.875 L77.875 -73.22999999999999 L85.0 -80.22999999999999 L110.0 -55.22999999999999 L85.0 -30.22999999999999 Z"/></g><g id="Light-M" transform="matrix(1 0 0 1 1098.18 1126)"><path d="M35.76925 8.03912500000001  12.500125 -15.22999999999999  35.76925 -38.49912499999999  41.11525 -33.22999999999999  26.86525 -18.979874999999993 H102.499875 V-11.480124999999987 H26.86525 L41.11525 2.7700000000000102 L35.76925 8.03912500000001 Z M84.23075 -31.960874999999987  78.88475 -37.22999999999999  93.13475 -51.48012499999999 H17.500125 V-58.97987499999999 H93.13475 L78.88475 -73.22999999999999 L84.23075 -78.49912499999999 L107.499875 -55.22999999999999 L84.23075 -31.960874999999987 Z"/></g><g id="Thin-M" transform="matrix(1 0 0 1 802.565 1126)"><path d="M36.5385 6.308500000000009  15.0 -15.22999999999999  36.5385 -36.76849999999999  40.10575 -33.22999999999999  24.60575 -17.72999999999999 H100.0 V-12.72999999999999 H24.60575 L40.10575 2.7700000000000102 L36.5385 6.308500000000009 Z M83.4615 -33.69149999999999  79.89425 -37.22999999999999  95.39425 -52.72999999999999 H20.0 V-57.72999999999999 H95.39425 L79.89425 -73.22999999999999 L83.4615 -76.76849999999999 L105.0 -55.22999999999999 L83.4615 -33.69149999999999 Z"/></g><g id="Ultralight-M" transform="matrix(1 0 0 1 506.415 1126)"><path d="M37.0 5.27000000000001  16.5 -15.22999999999999  37.0 -35.72999999999999  39.5 -33.22999999999999  23.25 -16.97999999999999 H98.5 V-13.47999999999999 H23.25 L39.5 2.7700000000000102 L37.0 5.27000000000001 Z M83.0 -34.72999999999999  80.5 -37.22999999999999  96.75 -53.47999999999999 H21.5 V-56.97999999999999 H96.75 L80.5 -73.22999999999999 L83.0 -75.72999999999999 L103.5 -55.22999999999999 L83.0 -34.72999999999999 Z"/></g><g id="Bold-S" transform="matrix(1 0 0 1 2294.23 696)"><path d="M29.686125 5.206250000000013  6.11475 -18.463749999999987  29.686125 -42.03512499999999  37.970625 -33.84924999999999  28.404 -24.28262499999999 H83.83125 V-12.644874999999988 H28.404 L37.970625 -2.979624999999986 L29.686125 5.206250000000013 Z M64.993875 -28.424874999999986  56.709375 -36.61074999999999  66.276 -46.17737499999999 H10.84875 V-57.815124999999995 H66.276 L56.709375 -67.480375 L64.993875 -75.66624999999999 L88.56525 -51.99624999999999 L64.993875 -28.424874999999986 Z"/></g><g id="Semibold-S" transform="matrix(1 0 0 1 1998.1 696)"><path d="M29.128696500000004 2.0332865000000133  7.57262475 -19.578606999999984  29.128696500000004 -41.13467874999999  35.998223625 -34.32087474999999  26.088580875000005 -24.411231999999984 H82.37337525 V-14.745883374999988 H26.088580875000005 L35.998223625 -4.780517499999988 L29.128696500000004 2.0332865000000133 Z M65.5513035 -29.325321249999988  58.681776375000005 -36.13912524999999  68.591419125 -46.04876799999999 H12.306624750000001 V-55.71411662499999 H68.591419125 L58.681776375000005 -65.67948249999999 L65.5513035 -72.49328649999998 L87.10737525 -50.88139299999999 L65.5513035 -29.325321249999988 Z"/></g><g id="Medium-S" transform="matrix(1 0 0 1 1701.85 696)"><path d="M28.710625125 -0.34673199999998694  8.666080125 -20.414749749999984  28.710625125 -40.45929474999999  34.518750000000004 -34.67474124999999  24.351794625000004 -24.50778587499999 H81.279919875 V-16.321812249999986 H24.351794625000004 L34.518750000000004 -6.131285499999986 L28.710625125 -0.34673199999998694 Z M65.969374875 -30.00070524999999  60.16125 -35.78525874999999  70.328205375 -45.95221412499999 H13.400080125 V-54.138187749999986 H70.328205375 L60.16125 -64.32871449999999 L65.969374875 -70.11326799999999 L86.013919875 -50.04525024999999 L65.969374875 -30.00070524999999 Z"/></g><g id="Regular-S" transform="matrix(1 0 0 1 1405.73 696)"><path d="M28.404 -2.0919999999999863  9.468 -21.027999999999984  28.404 -39.96399999999999  33.433875 -34.93412499999999  23.07825 -24.57849999999999 H80.47800000000001 V-17.47749999999999 H23.07825 L33.433875 -7.121874999999989 L28.404 -2.0919999999999863 Z M66.276 -30.495999999999988  61.246125 -35.525874999999985  71.60175000000001 -45.88149999999999 H14.202 V-52.98249999999999 H71.60175000000001 L61.246125 -63.33812499999999 L66.276 -68.368 L85.212 -49.43199999999999 L66.276 -30.495999999999988 Z"/></g><g id="Light-S" transform="matrix(1 0 0 1 1109.75 696)"><path d="M29.010938250000002 -3.4576603749999872  11.440598625000002 -21.027999999999984  29.010938250000002 -38.59833962499999  32.63718225 -34.93412499999999  21.29530725 -23.592151374999993 H78.505401375 V-18.463848624999986 H21.29530725 L32.63718225 -7.121874999999989 L29.010938250000002 -3.4576603749999872 Z M65.66906175 -31.861660374999985  62.04281775 -35.525874999999985  73.38469275 -46.867848624999986 H16.174598625 V-51.996151375 H73.38469275 L62.04281775 -63.33812499999999 L65.66906175 -67.00233962499999 L83.239401375 -49.43199999999999 L65.66906175 -31.861660374999985 Z"/></g><g id="Thin-S" transform="matrix(1 0 0 1 814.015 696)"><path d="M29.6178765 -4.823123499999987  13.413 -21.027999999999984  29.6178765 -37.23287649999999  31.840686750000003 -34.93412499999999  19.51256175 -22.605999999999987 H76.533 V-19.44999999999999 H19.51256175 L31.840686750000003 -7.121874999999989 L29.6178765 -4.823123499999987 Z M65.0621235 -33.22712349999999  62.839313250000004 -35.525874999999985  75.16743825 -47.85399999999999 H18.147000000000002 V-51.00999999999999 H75.16743825 L62.839313250000004 -63.33812499999999 L65.0621235 -65.63687649999999 L81.26700000000001 -49.43199999999999 L65.0621235 -33.22712349999999 Z"/></g><g id="Ultralight-S" transform="matrix(1 0 0 1 517.792 696)"><path d="M29.982000000000003 -5.642499999999988  14.5965 -21.027999999999984  29.982000000000003 -36.41349999999999  31.362750000000002 -34.93412499999999  18.442875 -22.01424999999999 H75.3495 V-20.041749999999986 H18.442875 L31.362750000000002 -7.121874999999989 L29.982000000000003 -5.642499999999988 Z M64.69800000000001 -34.04649999999999  63.31725 -35.525874999999985  76.237125 -48.44574999999999 H19.3305 V-50.418249999999986 H76.237125 L63.31725 -63.33812499999999 L64.69800000000001 -64.8175 L80.0835 -49.43199999999999 L64.69800000000001 -34.04649999999999 Z"/></g></g></svg>